HIERARCHY
ROOT Hips
{
 OFFSET 0.000000 0.000000 0.000000
 CHANNELS 6 Xposition Yposition Zposition Yrotation Xrotation Zrotation
 JOINT Chest
 {
  OFFSET 0.000000 11.395451 -0.039534
  CHANNELS 3 Yrotation Xrotation Zrotation
  JOINT Chest2
  {
   OFFSET 0.000000 9.398669 0.071813
   CHANNELS 3 Yrotation Xrotation Zrotation
   JOINT Chest3
   {
    OFFSET 0.000000 8.489801 0.000000
    CHANNELS 3 Yrotation Xrotation Zrotation
    JOINT Chest4
    {
     OFFSET 0.000000 8.489801 0.000000
     CHANNELS 3 Yrotation Xrotation Zrotation
     JOINT Neck
     {
      OFFSET 0.000000 12.404889 0.000000
      CHANNELS 3 Yrotation Xrotation Zrotation
      JOINT Head
      {
       OFFSET 0.000000 8.903270 0.092239
       CHANNELS 3 Yrotation Xrotation Zrotation
       End Site
       {
        OFFSET 0.000000 17.592497 0.007158
       }
      }
     }
     JOINT RightCollar
     {
      OFFSET -3.196775 6.966722 0.000000
      CHANNELS 3 Yrotation Xrotation Zrotation
      JOINT RightShoulder
      {
       OFFSET -15.955896 0.000000 0.000000
       CHANNELS 3 Yrotation Xrotation Zrotation
       JOINT RightElbow
       {
        OFFSET -24.792472 0.000000 0.000000
        CHANNELS 3 Yrotation Xrotation Zrotation
        JOINT RightWrist
        {
         OFFSET -20.900115 0.000000 0.025002
         CHANNELS 3 Yrotation Xrotation Zrotation
         End Site
         {
          OFFSET -16.056692 0.000000 0.000000
         }
        }
       }
      }
     }
     JOINT LeftCollar
     {
      OFFSET 3.196775 6.966722 0.000000
      CHANNELS 3 Yrotation Xrotation Zrotation
      JOINT LeftShoulder
      {
       OFFSET 15.955896 0.000000 0.000000
       CHANNELS 3 Yrotation Xrotation Zrotation
       JOINT LeftElbow
       {
        OFFSET 24.792472 0.000000 0.000000
        CHANNELS 3 Yrotation Xrotation Zrotation
        JOINT LeftWrist
        {
         OFFSET 20.900115 0.000000 0.025002
         CHANNELS 3 Yrotation Xrotation Zrotation
         End Site
         {
          OFFSET 16.056692 0.000000 0.000000
         }
        }
       }
      }
     }
    }
   }
  }
 }
 JOINT RightHip
 {
  OFFSET -9.568995 0.193718 0.019767
  CHANNELS 3 Yrotation Xrotation Zrotation
  JOINT RightKnee
  {
   OFFSET 0.000000 -56.649296 0.015402
   CHANNELS 3 Yrotation Xrotation Zrotation
   JOINT RightAnkle
   {
    OFFSET 0.000000 -41.365147 0.021264
    CHANNELS 3 Yrotation Xrotation Zrotation
    JOINT RightToe
    {
     OFFSET 0.000000 -7.465940 17.672538
     CHANNELS 3 Yrotation Xrotation Zrotation
     End Site
     {
      OFFSET 0.000000 -1.736315 7.837145
     }
    }
   }
  }
 }
 JOINT LeftHip
 {
  OFFSET 9.568995 0.193718 0.019767
  CHANNELS 3 Yrotation Xrotation Zrotation
  JOINT LeftKnee
  {
   OFFSET 0.000000 -56.649296 0.015402
   CHANNELS 3 Yrotation Xrotation Zrotation
   JOINT LeftAnkle
   {
    OFFSET 0.000000 -41.365147 0.021264
    CHANNELS 3 Yrotation Xrotation Zrotation
    JOINT LeftToe
    {
     OFFSET 0.000000 -7.465940 17.672538
     CHANNELS 3 Yrotation Xrotation Zrotation
     End Site
     {
      OFFSET 0.000000 -1.736315 7.837145
     }
    }
   }
  }
 }
}
MOTION
Frames: 12
Frame Time: 0.016667
64.475214 105.696919 121.326073 19.765078 -0.964571 -2.047090 -8.198887 6.283123 2.645204 -3.674123 2.745526 1.284917 -3.674094 2.745531 1.284912 -2.760817 2.051529 0.980054 -7.463838 16.236440 4.751870 -15.525887 -4.991805 11.438970 0.581125 0.486117 7.305264 4.792876 -16.954449 54.450193 51.540999 -33.323162 21.695538 -12.715383 -7.923966 10.360803 9.172179 9.757922 -3.080407 -7.467834 -30.806108 -50.658948 -34.768260 -41.706275 -40.991712 14.948993 -11.265626 -6.469351 -3.892485 0.095448 8.171088 3.407583 18.604889 -0.935428 5.071160 -11.936016 -6.329980 0.015654 -4.601168 -0.400435 12.802849 -16.506793 8.045857 0.113548 27.425459 -0.224420 6.360204 -12.669703 -0.704380 0.000000 0.000000 0.000000
64.667809 105.750360 121.913222 17.180761 -0.843525 -1.947437 -7.978615 6.425922 2.746863 -3.578369 2.808523 1.329432 -3.578350 2.808533 1.329433 -2.689343 2.098723 1.013372 -7.162881 15.958769 4.473800 -14.914781 -5.599389 10.867465 0.594699 0.532710 7.330879 5.224538 -17.577895 54.155416 51.739486 -33.184399 21.752194 -12.823348 -7.853767 10.251219 9.095719 9.665297 -3.115239 -7.097413 -30.611711 -50.782708 -34.826824 -41.750860 -40.967942 14.395572 -11.334033 -6.614676 -3.169437 0.263669 7.999686 3.980961 18.508358 -0.956530 6.119267 -11.775965 -6.615021 0.013851 -4.847932 -0.333502 12.580319 -16.954547 6.912840 0.169278 26.170464 0.135704 6.152406 -11.746235 -1.141484 -0.000000 -0.000000 0.000000
64.867831 105.798673 122.548403 14.620873 -0.749196 -1.869213 -7.754352 6.567131 2.838355 -3.480783 2.871082 1.369196 -3.480783 2.871082 1.369196 -2.616493 2.145611 1.043086 -6.853815 15.715906 4.198923 -14.280338 -6.139620 10.289254 0.625725 0.540069 7.368017 5.654121 -18.118485 53.847156 51.885037 -33.067271 21.806742 -12.918457 -7.787114 10.157141 9.031957 9.589703 -3.137966 -6.770342 -30.398806 -50.910381 -34.899394 -41.788730 -40.914862 13.844788 -11.410186 -6.738171 -2.358217 0.476129 7.829457 4.596959 18.407724 -0.957826 7.026143 -11.640674 -6.839044 0.013166 -5.081616 -0.300849 12.033900 -17.295938 5.996292 0.280958 24.662965 0.358525 6.009716 -10.602514 -1.596247 0.000000 0.000000 0.000000
65.079490 105.842646 123.242666 12.087645 -0.691984 -1.809146 -7.527419 6.700204 2.920263 -3.381835 2.930294 1.404398 -3.381819 2.930292 1.404395 -2.542556 2.190042 1.069331 -6.535377 15.531611 3.919141 -13.615229 -6.569922 9.686116 0.696014 0.492877 7.421107 6.087866 -18.520665 53.509914 51.974486 -32.993821 21.826063 -12.987713 -7.728099 10.079072 8.992528 9.543274 -3.146000 -6.530886 -30.154098 -51.029357 -35.004160 -41.804763 -40.797383 13.283734 -11.518316 -6.849367 -1.460082 0.756810 7.661862 5.393077 18.290219 -0.928589 7.689952 -11.544017 -6.968110 0.014552 -5.272360 -0.320489 11.036354 -17.484755 5.348980 0.450839 22.840162 0.382532 5.993173 -9.034130 -2.033006 0.000000 0.000000 0.000000
65.298577 105.881489 123.984959 9.578591 -0.663949 -1.766132 -7.296616 6.830546 2.993222 -3.281089 2.988556 1.435409 -3.281062 2.988564 1.435412 -2.467263 2.233816 1.092410 -6.211337 15.382541 3.638963 -12.932101 -6.931758 9.071941 0.785415 0.408651 7.489921 6.517877 -18.841507 53.150892 52.011676 -32.937642 21.839528 -13.045391 -7.674334 10.017207 8.964449 9.515718 -3.144758 -6.335350 -29.894047 -51.152768 -35.119051 -41.813101 -40.652074 12.725455 -11.634934 -6.939493 -0.473881 1.082660 7.492957 6.230902 18.169157 -0.882626 8.213889 -11.474647 -7.036516 0.017537 -5.450537 -0.374956 9.713501 -17.543388 4.900466 0.702416 20.731229 0.350058 6.054495 -7.248620 -2.541208 0.000000 0.000000 0.000000
65.500599 105.911668 124.771220 7.109663 -0.635602 -1.742333 -7.057263 6.941376 3.044827 -3.176257 3.038577 1.456384 -3.176257 3.038577 1.456384 -2.388897 2.271454 1.107873 -5.893113 15.258441 3.382366 -12.262257 -7.238774 8.497300 0.847993 0.318913 7.560626 6.899692 -19.113351 52.826076 51.981563 -32.882324 21.910396 -13.093313 -7.631877 9.963010 8.943585 9.487293 -3.137477 -6.132292 -29.653484 -51.287890 -35.235207 -41.804665 -40.523632 12.243192 -11.745024 -6.987161 0.514522 1.410427 7.327479 6.947513 18.081371 -0.835016 8.764071 -11.413050 -7.104084 0.021686 -5.677957 -0.446838 8.299261 -17.561956 4.613666 1.004686 18.534605 0.307775 6.083105 -5.855568 -3.207536 0.000000 0.000000 0.000000
65.674339 105.931819 125.600955 4.677205 -0.584953 -1.747368 -6.803931 7.016430 3.075908 -3.064765 3.073131 1.467415 -3.064790 3.073115 1.467410 -2.305456 2.297553 1.115749 -5.584136 15.166709 3.155183 -11.614216 -7.476719 7.974116 0.853635 0.214174 7.635868 7.214108 -19.330488 52.548370 51.857953 -32.813283 22.083033 -13.129787 -7.604652 9.924905 8.939846 9.446297 -3.121223 -5.912183 -29.427708 -51.437634 -35.359364 -41.783609 -40.418224 11.867371 -11.853556 -6.985274 1.434539 1.721607 7.169908 7.504962 18.026354 -0.789374 9.426402 -11.339467 -7.192032 0.027454 -5.989566 -0.534603 6.718978 -17.563735 4.556613 1.482663 16.272899 0.231186 6.012743 -5.143415 -4.097045 0.000000 0.000000 0.000000
65.831015 105.943305 126.474658 2.284836 -0.536851 -1.772377 -6.541872 7.069444 3.088802 -2.948957 3.098268 1.469886 -2.948969 3.098257 1.469884 -2.218668 2.316675 1.117139 -5.281930 15.100842 2.950312 -10.982714 -7.659636 7.490047 0.832151 0.102771 7.714168 7.477790 -19.499049 52.301583 51.666684 -32.740136 22.310453 -13.157851 -7.589758 9.894628 8.943337 9.405385 -3.098665 -5.684013 -29.221876 -51.596062 -35.485575 -41.745555 -40.329524 11.571309 -11.961267 -6.948540 2.357144 2.034572 7.016130 7.941614 18.005629 -0.741707 10.114986 -11.271998 -7.280931 0.034964 -6.350909 -0.638100 5.050628 -17.488831 4.652045 2.021796 13.907883 0.154859 5.915241 -4.845868 -5.062534 0.000000 0.000000 0.000000
65.979786 105.946683 127.389742 -0.040497 -0.530620 -1.791213 -6.282534 7.127531 3.072941 -2.833954 3.126056 1.459652 -2.833954 3.126056 1.459652 -2.132424 2.337851 1.109004 -4.987933 15.030153 2.773995 -10.376257 -7.843753 7.061335 0.826256 0.040919 7.771402 7.699105 -19.667569 52.100724 51.469729 -32.684787 22.520525 -13.185439 -7.582075 9.838230 8.920410 9.380220 -3.081140 -5.423422 -29.083777 -51.753870 -35.586789 -41.669622 -40.283974 11.344092 -12.048326 -6.890447 3.408880 2.361863 6.860042 8.209462 18.059590 -0.695021 10.738151 -11.247679 -7.370078 0.043048 -6.719549 -0.741710 3.756064 -17.328948 4.649520 2.217367 11.572905 0.165086 5.864726 -4.716860 -5.833035 0.000000 -0.000000 0.000000
66.132736 105.941044 128.337780 -2.311387 -0.568524 -1.785505 -6.019382 7.197355 3.023890 -2.716838 3.159445 1.434691 -2.716843 3.159424 1.434681 -2.044555 2.363251 1.089815 -4.702362 14.938681 2.630030 -9.798330 -8.058959 6.696906 0.850524 0.070487 7.789379 7.879244 -19.872027 51.943815 51.294229 -32.663246 22.690816 -13.203682 -7.580441 9.743570 8.850079 9.382333 -3.072710 -5.079351 -29.057872 -51.932841 -35.643719 -41.537019 -40.318228 11.186174 -12.099317 -6.815705 4.695903 2.675992 6.689012 8.246105 18.231920 -0.646396 11.266156 -11.309783 -7.450656 0.051218 -7.050349 -0.845787 3.144088 -17.095795 4.395388 1.817779 9.219338 0.289383 5.933173 -4.701053 -6.191880 0.000000 -0.000000 0.000000
66.277782 105.927298 129.327200 -4.515290 -0.646621 -1.768621 -5.759121 7.269502 2.946121 -2.600542 3.194156 1.396996 -2.600543 3.194121 1.396984 -1.957222 2.389694 1.061086 -4.424553 14.843588 2.515589 -9.245110 -8.274735 6.389364 0.889108 0.147318 7.780829 8.015052 -20.074269 51.832462 51.111640 -32.659726 22.844929 -13.220621 -7.585626 9.622669 8.752613 9.399013 -3.071205 -4.702056 -29.098492 -52.104933 -35.674468 -41.368353 -40.398071 11.099968 -12.134076 -6.723676 6.112284 3.006758 6.521274 8.114015 18.479953 -0.600663 11.729684 -11.416088 -7.531224 0.059766 -7.388643 -0.949546 2.907005 -16.799613 4.032407 1.060473 6.928326 0.484552 6.011114 -4.802753 -6.324851 0.000000 -0.000000 -0.000000
66.387835 105.908731 130.380700 -6.587549 -0.794332 -1.758248 -5.533070 7.346705 2.841379 -2.499002 3.231224 1.347893 -2.499002 3.231224 1.347893 -1.880898 2.417970 1.023896 -4.154379 14.763792 2.427404 -8.713492 -8.456829 6.130949 0.939429 0.198794 7.768508 8.108273 -20.209810 51.786394 50.901221 -32.650118 22.980164 -13.268491 -7.593925 9.476970 8.656399 9.408972 -3.078362 -4.419351 -29.117053 -52.187236 -35.706811 -41.201772 -40.444427 11.076534 -12.184963 -6.618989 7.466573 3.452869 6.396851 7.952240 18.713712 -0.571555 12.126926 -11.476742 -7.636845 0.068583 -7.827253 -1.035197 2.582494 -16.444119 3.753356 0.278652 5.031586 0.689544 5.905851 -4.869133 -6.608660 0.000000 0.000000 0.000000
